<svg xmlns="http://www.w3.org/2000/svg" xmlns:xlink="http://www.w3.org/1999/xlink" version="1.1" x="0px" y="0px" viewBox="0 0 100 125" enable-background="new 0 0 100 100" xml:space="preserve"><rect display="none" fill="#000000" width="100" height="101"/><path d="M59.1,54.5c-0.4-0.2-0.9-0.3-1.4-0.3c-0.2,0-0.4,0-0.5,0c-0.5,0.1-1,0.3-1.4,0.6c-0.9,0.6-1.6,1.7-1.6,2.9s0.6,2.3,1.6,2.9  c0.4,0.3,0.9,0.5,1.4,0.6c0.2,0,0.4,0,0.5,0c0.5,0,1-0.1,1.4-0.3c1.3-0.5,2.2-1.8,2.2-3.3C61.3,56.3,60.4,55,59.1,54.5z M47,30.9  c3,0,5.6,0.4,7.5,0.7c-0.2,0.1-0.3,0.2-0.5,0.3c-1.8,0.8-4.3,1.4-7.1,1.4c-2.9,0-5.5-0.6-7.3-1.5c-0.1-0.1-0.2-0.1-0.3-0.2  C41.9,31.1,44.4,30.9,47,30.9z M55.2,32.9C55.1,33,55,33,54.8,33.1l-0.1,0.1l0,0l0,0c-2.1,1-4.9,1.5-7.7,1.5c-3,0-5.8-0.6-8-1.6l0,0  l0,0L38.7,33c-0.1-0.1-0.2-0.1-0.3-0.2l-0.2-0.1c0,0,0,0,0,0c0.3,2.1,1.5,5,3.4,6.3c0.4,0.3,0.8,0.5,1.3,0.7  c1.1,0.5,2.3,0.8,3.6,0.8c2.2,0,4.8-1.2,6.2-2.5C54.1,36.8,55,34.8,55.2,32.9C55.3,32.9,55.3,32.9,55.2,32.9L55.2,32.9z M58.4,21.4  l-11.8-3.9L35.4,22l-1.9,6.3c0,0,2.3,1.2,3.7,2c0,0,0.1,0,0.1,0.1l1.8-0.3c2.7-0.5,5.3-0.7,8-0.7c3.1,0,5.8,0.4,7.7,0.7l1.5,0.3  l0.1,0l3.8-2.6L58.4,21.4z M49.8,26.3C49.8,26.3,49.8,26.3,49.8,26.3C49.7,26.3,49.7,26.4,49.8,26.3c-0.5,0.5-1.1,0.7-1.7,0.8  c-0.2,0-0.5,0.1-0.7,0.2c-0.1,0.1-0.3,0.2-0.3,0.2s-0.1-0.1-0.5-0.2c-0.4-0.1-0.4-0.1-0.7-0.2c-0.6-0.1-1.2-0.2-1.6-0.6  c-0.3-0.4-0.4-0.8-0.4-1.3c0-0.3,0.1-0.6,0.1-1c0,0,0-0.1,0-0.1c0.1-0.3,0.3-0.8,0.3-1.3c0-0.3-0.1-0.7-0.3-1c0,0-0.1-0.1-0.2-0.1  c0,0,0,0,0,0c0,0,0-0.1,0.1-0.1c0,0,0,0,0.1-0.1c0,0,0,0,0,0c0,0,0.1-0.1,0.1-0.1c0.1-0.2,0.3-0.3,0.4-0.4c0,0,0.3-0.3,0.3-0.3  c0.5,0.4,1.2,0.4,1.8,0.1c0.1-0.1,0.2-0.2,0.4-0.3c0,0,0.7,0.4,1.1,0.4c0.7,0,0.8-0.1,1.1-0.3c0,0,0.4,0.4,0.6,0.5  c0.1,0.1,0.2,0.2,0.3,0.3c-0.6,0.4-0.4,1.2-0.3,1.8c0.1,0.3,0.2,0.5,0.3,0.8c0,0,0,0,0,0c0.1,0.3,0.2,0.7,0.2,1  C50.2,25.6,50.1,26,49.8,26.3z M46.3,46c0.1,0,0.1,0,0.2,0l-8,9.3c-0.1-0.5-0.2-1-0.2-1.5c0-3.3,2-6.1,4.8-7.3  C44.2,46.2,45.3,46,46.3,46z M37,57.2l-2.9,3.4c-1.6-2.6-2.9-4.6-3.2-5.1c-0.9-1.5,0-3.9,1.3-4.9c0,0,8.2-7.9,9.5-9.2  c0.1,0.1,0.3,0.2,0.4,0.2c1.4,0.6,2.9,1,4.5,1c0.4,0,0.8,0,1.3-0.1c0.6-0.1,1.2-0.2,1.8-0.4l-1.6,1.9c-0.6-0.1-1.2-0.2-1.8-0.2  c-5.5,0-10,4.5-10,10C36.4,55,36.6,56.2,37,57.2z M44,61.4l9.4-11.1c0.5,0.9,0.8,2,0.8,3.1c-1.3,1-2.1,2.6-2.1,4.4  c0,0.4,0.1,0.9,0.2,1.3c-0.8,0.9-1.7,1.6-2.9,2.1c-0.9,0.4-2,0.6-3.1,0.6C45.5,61.7,44.7,61.6,44,61.4z M54.8,48.6l5.1-5.9  c5,1.1,10.6,2.4,10.7,2.4c0.7,0.1,1.4,0.5,1.9,1c0.1,0.1,0.2,0.2,0.3,0.4l0.1,0.1c0.9,1.4,0.7,3.2-0.5,4.3c-0.1,0.1-9.1,6.3-9.1,6.3  c-0.3-2.8-2.6-5-5.4-5.1l2.2-2.2l-4.7-0.4C55.2,49.2,55,48.9,54.8,48.6z M38.5,67.7l4-4.7c0.8,0.3,1.6,0.5,2.4,0.7l1.6,2.9l0,0l0,0  v0v0l0.1-0.1l0.5-0.8l1.4-2.2c1.8-0.4,3.4-1.3,4.7-2.5c1,1.3,2.5,2.2,4.2,2.3L56,65.5l-6.6,10c-0.6,0.8-1.6,1.5-2.9,1.5  c-1.4,0-2.4-0.6-3-1.5C43.5,75.5,41.2,71.9,38.5,67.7z M47,8.2C23.9,8.2,5.2,26.9,5.2,50c0,15,7.9,28.2,19.8,35.6  c0.8,0.5,1.7,1,2.5,1.4c5.8,3.1,12.5,4.8,19.5,4.8c7,0,13.7-1.8,19.5-4.8c0.9-0.5,1.7-0.9,2.5-1.4C80.9,78.2,88.8,65,88.8,50  C88.8,26.9,70.1,8.2,47,8.2z M22.1,77.1c0.1,0,0.1,0.1,0.2,0.1c0.5,0.5,1,0.9,1.6,1.3c-0.5-0.4-1-0.9-1.6-1.3  C22.2,77.2,22.1,77.1,22.1,77.1c-0.4-0.4-0.7-0.7-1.1-1.1c-2.1-2.1-3.9-4.4-5.4-6.9c0,0,0,0,0,0c-0.3-0.4-0.5-0.9-0.8-1.3  c-0.1-0.1-0.1-0.3-0.2-0.4c-0.2-0.4-0.4-0.8-0.6-1.2c-2-4.1-3.3-8.8-3.6-13.4c0-0.2,0-0.5-0.1-0.7c0-0.7-0.1-1.4-0.1-2.1  c0-20.3,16.5-36.8,36.8-36.8c2.4,0,4.9,0.2,7.3,0.7c0.2,0,0.4,0.1,0.6,0.1c0.3,0.1,0.7,0.2,1,0.2c1.3,0.3,2.7,0.8,4,1.2  c0.8,0.3,1.6,0.6,2.4,1c0.9,0.4,1.8,0.9,2.7,1.4c0,0,0.1,0,0.1,0.1c1.2,0.7,2.4,1.4,3.5,2.2c0.4,0.3,1.4,0.7,1.4,0.8L37.7,58.7  C37.7,58.7,22,77.1,22.1,77.1z M25.9,80.1c-0.1,0-0.1-0.1-0.2-0.1c0,0,0,0,0,0l0,0C25.8,80.1,25.8,80.1,25.9,80.1  C25.9,80.1,25.9,80.1,25.9,80.1z M35,84.8c-0.7-0.2-1.3-0.5-2-0.8V82h2V84.8z M61,84.1c-0.7,0.3-1,0.5-2,0.8V82h2V84.1z M69,79.5  v-0.6c0-6.2-3.6-12.3-10.7-12.7l-7.2,11.1c0,0,0,0,0,0c-1,1.5-2.8,2.4-4.6,2.4c-2,0-3.7-0.9-4.7-2.5l-4.8-7.6L27.2,81  c-0.4-0.3-0.8-0.6-1.3-0.8l0,0c0,0,0,0,0,0L36,68.4l1.7-2l3.5-4.1l1.4-1.6l10-11.7l1.4-1.7l4.3-5l15.3-17.8c0.3,0.3,0.6,0.7,0.9,1  c0,0,0,0,0,0c1.8,2,3.4,4.2,4.7,6.6c0,0,0,0,0,0.1c0.2,0.4,0.4,0.8,0.6,1.2c0.1,0.1,0.1,0.2,0.2,0.3c0.2,0.4,0.3,0.7,0.5,1.1  c0.1,0.2,0.2,0.3,0.2,0.5c0.1,0.3,0.3,0.7,0.4,1c0.1,0.2,0.2,0.4,0.2,0.6c0.1,0.3,0.2,0.6,0.3,1c0.1,0.2,0.2,0.5,0.2,0.7  c0.1,0.3,0.2,0.6,0.3,0.9c0.1,0.3,0.1,0.5,0.2,0.8c0.1,0.3,0.2,0.6,0.2,0.9c0.1,0.3,0.1,0.6,0.2,0.8c0.1,0.3,0.1,0.6,0.2,0.9  c0.1,0.3,0.1,0.6,0.2,0.9c0,0.3,0.1,0.5,0.1,0.8c0,0.3,0.1,0.7,0.1,1c0,0.3,0.1,0.5,0.1,0.8c0,0.4,0.1,0.8,0.1,1.2  c0,0.2,0,0.4,0,0.6c0,0.6,0,1.2,0,1.8C83.8,62.1,78,72.8,69,79.5z"/><text x="0" y="115" fill="#000000" font-size="5px" font-weight="bold" font-family="'Helvetica Neue', Helvetica, Arial-Unicode, Arial, Sans-serif">Created by Lorie Shaull</text><text x="0" y="120" fill="#000000" font-size="5px" font-weight="bold" font-family="'Helvetica Neue', Helvetica, Arial-Unicode, Arial, Sans-serif">from the Noun Project</text></svg>